HIERARCHY
ROOT Hips
{
	OFFSET 0.000000 0.000000 0.000000
	CHANNELS 6 Xposition Yposition Zposition Zrotation Yrotation Xrotation 
	JOINT LeftUpLeg_virtual
	{
		OFFSET 0.000000 0.000000 0.000000
		CHANNELS 3 Zrotation Yrotation Xrotation
		JOINT LeftUpLeg
		{
			OFFSET 10.205400 -3.823500 0.155100
			CHANNELS 3 Zrotation Yrotation Xrotation
			JOINT LeftLeg
			{
				OFFSET 0.708757 -12.982077 0.567790
				CHANNELS 3 Zrotation Yrotation Xrotation
				JOINT LeftFoot
				{
					OFFSET -0.708756 -10.717838 -2.184338
					CHANNELS 3 Zrotation Yrotation Xrotation
					JOINT LeftToeBase
					{
						OFFSET 0.108149 -7.191104 7.560241
						CHANNELS 3 Zrotation Yrotation Xrotation
						End Site
						{
							OFFSET 0.000000 0.000000 0.000000
						}
					}
				}
			}
		}
	}
	JOINT RightUpLeg_virtual
	{
		OFFSET 0.000000 0.000000 0.000000
		CHANNELS 3 Zrotation Yrotation Xrotation
		JOINT RightUpLeg
		{
			OFFSET -10.205400 -3.823500 0.005500
			CHANNELS 3 Zrotation Yrotation Xrotation
			JOINT RightLeg
			{
				OFFSET -0.708756 -12.982134 0.610632
				CHANNELS 3 Zrotation Yrotation Xrotation
				JOINT RightFoot
				{
					OFFSET 0.708754 -10.717769 -1.945823
					CHANNELS 3 Zrotation Yrotation Xrotation
					JOINT RightToeBase
					{
						OFFSET -0.108140 -7.191069 7.372968
						CHANNELS 3 Zrotation Yrotation Xrotation
						End Site
						{
							OFFSET 0.000000 0.000000 0.000000
						}
					}
				}
			}
		}
	}
	JOINT Spine_virtual
	{
		OFFSET 0.000000 0.000000 0.000000
		CHANNELS 3 Zrotation Yrotation Xrotation
		JOINT Spine
		{
			OFFSET 0.000000 6.876099 0.125700
			CHANNELS 3 Zrotation Yrotation Xrotation
			JOINT Spine1
			{
				OFFSET 0.000000 8.022060 0.146608
				CHANNELS 3 Zrotation Yrotation Xrotation
				JOINT Spine2
				{
					OFFSET 0.000000 9.168068 0.167552
					CHANNELS 3 Zrotation Yrotation Xrotation
					JOINT Neck_virtual
					{
						OFFSET 0.000000 0.000000 0.000000
						CHANNELS 3 Zrotation Yrotation Xrotation
						JOINT Neck
						{
							OFFSET 0.000000 10.314075 0.188496
							CHANNELS 3 Zrotation Yrotation Xrotation
							JOINT Head
							{
								OFFSET 0.000000 7.643700 -2.377400
								CHANNELS 3 Zrotation Yrotation Xrotation
								End Site
								{
									OFFSET 0.000000 0.000000 0.000000
								}
							}
						}
					}
					JOINT LeftShoulder_virtual
					{
						OFFSET 0.000000 0.000000 0.000000
						CHANNELS 3 Zrotation Yrotation Xrotation
						JOINT LeftShoulder
						{
							OFFSET 4.392200 8.824978 0.174984
							CHANNELS 3 Zrotation Yrotation Xrotation
							JOINT LeftArm
							{
								OFFSET 8.771219 -2.981674 -0.026999
								CHANNELS 3 Zrotation Yrotation Xrotation
								JOINT LeftForeArm
								{
									OFFSET 8.512804 0.000000 -0.000000
									CHANNELS 3 Zrotation Yrotation Xrotation
									JOINT LeftHand
									{
										OFFSET 18.484802 0.000000 -0.000000
										CHANNELS 3 Zrotation Yrotation Xrotation
										End Site
										{
											OFFSET 0.000000 0.000000 0.000000
										}
									}
								}
							}
						}
					}
					JOINT RightShoulder_virtual
					{
						OFFSET 0.000000 0.000000 0.000000
						CHANNELS 3 Zrotation Yrotation Xrotation
						JOINT RightShoulder
						{
							OFFSET -4.392200 8.824993 0.141379
							CHANNELS 3 Zrotation Yrotation Xrotation
							JOINT RightArm
							{
								OFFSET -8.771282 -2.981682 -0.094208
								CHANNELS 3 Zrotation Yrotation Xrotation
								JOINT RightForeArm
								{
									OFFSET -8.494598 0.000000 0.000000
									CHANNELS 3 Zrotation Yrotation Xrotation
									JOINT RightHand
									{
										OFFSET -18.483803 0.000000 0.000001
										CHANNELS 3 Zrotation Yrotation Xrotation
										End Site
										{
											OFFSET 0.000000 0.000000 0.000000
										}
									}
								}
							}
						}
					}
				}
			}
		}
	}
}
MOTION
Frames: 7
Frame Time: 0.033333
-9.906204 22.515045 -4.916841 179.601327 8.062424 -179.614359 4.932665 2.490249 6.810625 4.453084 0.836125 -78.760844 9.316192 1.486555 97.274598 -7.040260 -0.861053 -10.748608 0.000000 0.000000 0.000000 5.491794 4.170094 6.926884 4.509883 -0.221358 -84.769874 1.493851 1.102283 93.346303 -7.534671 0.733935 -5.165309 0.000000 0.000000 0.000000 4.574237 4.605221 7.262716 3.110446 -4.314503 7.459805 0.776260 -6.909124 2.306354 0.048726 -0.083732 0.041410 0.563843 -5.476003 6.567046 -2.227985 -2.906802 13.417348 0.000000 0.000000 0.000000 2.416661 -4.341870 1.985867 2.053392 -11.899012 0.058283 29.715739 -31.234223 -30.816024 -6.586230 -44.324263 3.415134 0.000000 0.000000 0.000000 -1.649733 -3.483249 2.103056 26.640234 23.162621 2.639797 27.270126 31.982566 -9.726159 -7.564569 62.057391 -8.364379 0.000000 0.000000 0.000000 
-9.895498 22.524544 -4.866599 179.533558 8.097877 -179.672907 4.673157 2.772585 6.865076 4.707513 1.094431 -79.025849 9.463343 1.576967 97.254667 -7.165515 -1.401628 -10.818141 0.000000 0.000000 0.000000 5.499732 4.549323 7.044872 4.333149 -0.211305 -84.835512 1.472017 1.244816 93.383999 -7.508989 0.675365 -5.172405 0.000000 0.000000 0.000000 4.440784 5.047036 7.288510 2.965419 -5.105204 7.554113 0.778377 -6.876314 2.363924 0.082169 -0.104338 0.059210 0.592309 -5.478954 6.386496 -1.902977 -2.831112 13.288678 0.000000 0.000000 0.000000 2.405145 -4.274328 1.857979 0.976076 -12.590906 0.012368 25.083544 -32.081685 -30.474392 -6.716151 -43.772271 2.800501 0.000000 0.000000 0.000000 -1.721881 -3.431906 1.928827 26.695175 23.007441 2.350594 27.206235 31.365718 -9.248303 -8.545438 63.135461 -8.869020 0.000000 0.000000 0.000000 
-9.863218 22.541885 -4.770552 179.658345 8.149883 -179.673686 4.403757 3.295473 6.788199 5.064168 1.565194 -79.411529 9.532674 1.586269 97.280294 -7.422528 -1.956243 -10.867773 0.000000 0.000000 0.000000 5.604824 5.202973 7.106892 4.192616 -0.133753 -84.737581 1.383664 1.349998 93.229849 -7.520923 0.540183 -5.105001 0.000000 0.000000 0.000000 4.487353 5.559245 7.311116 2.771745 -5.887883 7.607335 0.771427 -6.758031 2.439594 0.030002 -0.057188 0.067482 0.627789 -5.368053 6.256925 -1.710874 -2.761185 13.021024 0.000000 0.000000 0.000000 2.452845 -4.212312 1.822835 -0.219446 -13.545404 -0.046353 20.115833 -33.424996 -29.659195 -6.756193 -42.918607 2.182437 0.000000 0.000000 0.000000 -1.588807 -3.321940 1.795690 26.773775 22.703858 2.118359 27.008427 30.954308 -8.840516 -10.120950 64.589226 -9.950450 0.000000 0.000000 0.000000 
-9.821086 22.558077 -4.670182 179.821764 8.139653 -179.768612 4.113231 3.755377 6.728662 5.414412 2.056635 -79.681403 9.585253 1.600483 97.350877 -7.705552 -2.472047 -10.902339 0.000000 0.000000 0.000000 5.642618 5.702532 7.266601 4.136897 -0.100597 -84.610095 1.279196 1.446781 93.020244 -7.547210 0.375325 -4.996397 0.000000 0.000000 0.000000 4.550737 5.945789 7.516570 2.515061 -6.694351 7.581580 0.811456 -6.623879 2.429298 0.026440 -0.047495 0.014206 0.588257 -5.143878 6.183139 -1.650500 -2.742846 12.959231 0.000000 0.000000 0.000000 2.461020 -3.997361 1.760802 -1.573502 -14.595206 0.031334 14.576312 -35.146893 -27.799818 -6.736819 -41.833966 1.650531 0.000000 0.000000 0.000000 -1.657196 -3.170406 1.772963 26.693170 22.362070 1.492080 27.534096 30.390742 -8.046974 -11.440629 66.437967 -10.828529 0.000000 0.000000 0.000000 
-9.782316 22.571991 -4.593941 179.815604 8.201450 -179.816847 3.795170 4.218802 6.667424 5.556805 2.507505 -79.852206 9.646101 1.647772 97.297220 -7.911328 -2.699187 -10.825276 0.000000 0.000000 0.000000 5.608544 6.205490 7.384747 4.122687 -0.053804 -84.678117 1.221924 1.569680 92.919533 -7.531080 0.254843 -4.920769 0.000000 0.000000 0.000000 4.475790 6.283912 7.618507 2.137108 -7.249992 7.458489 0.822241 -6.379302 2.485934 0.008266 0.000427 0.050718 0.662136 -5.036970 6.028067 -1.679988 -2.731204 12.644476 0.000000 0.000000 0.000000 2.541292 -3.771482 1.743471 -3.028245 -15.755045 0.115720 8.291667 -36.837140 -24.371276 -6.539306 -40.920131 1.056114 0.000000 0.000000 0.000000 -1.506452 -2.970226 1.645381 26.297183 21.850438 0.913861 28.172348 29.549523 -7.423712 -13.073158 68.633340 -12.121264 0.000000 0.000000 0.000000 
-9.755503 22.585114 -4.555208 179.852746 8.053295 -179.806096 3.511801 4.310636 6.612415 5.548008 3.093455 -80.025556 9.757439 1.729734 97.371149 -8.170454 -2.829961 -10.944326 0.000000 0.000000 0.000000 5.565835 6.347891 7.293000 4.081455 0.048458 -84.535353 1.164632 1.639977 92.848301 -7.467091 0.153612 -4.840432 0.000000 0.000000 0.000000 4.409856 6.397374 7.730828 1.789031 -7.658940 7.140383 0.900957 -6.124447 2.522705 -0.001688 -0.032303 -0.015376 0.801610 -4.806006 6.087086 -1.704729 -2.735113 12.274438 0.000000 0.000000 0.000000 2.612431 -3.517964 1.871128 -4.539342 -16.629771 0.443023 1.092231 -37.881698 -19.458674 -6.191896 -40.582187 0.873605 0.000000 0.000000 0.000000 -1.392187 -2.510720 1.682003 25.518080 21.167335 0.212704 29.412868 28.309199 -6.794758 -15.064081 71.329223 -13.877384 0.000000 0.000000 0.000000 
-9.756831 22.606995 -4.554654 179.945664 7.877109 -179.822188 3.305981 4.428196 6.657954 5.441676 3.660692 -80.249504 9.883666 1.807036 97.474162 -8.481573 -2.843882 -11.041190 0.000000 0.000000 0.000000 5.552531 6.378453 7.169195 4.028943 0.145165 -84.208255 1.167692 1.716297 92.826041 -7.347422 0.091628 -4.884466 0.000000 0.000000 0.000000 4.352246 6.461128 7.863330 1.502988 -7.719172 6.726635 1.053079 -5.677661 2.645120 -0.032404 0.038060 -0.012935 0.795133 -4.309145 6.110715 -1.867344 -3.112528 11.732466 0.000000 0.000000 0.000000 2.683338 -3.142445 2.063682 -6.072130 -17.314485 0.681934 -6.781004 -37.974260 -13.276383 -5.781596 -41.074985 0.855172 0.000000 0.000000 0.000000 -1.377445 -2.235548 1.764368 24.246652 20.520733 -0.518985 30.951863 26.654702 -6.272685 -18.457608 74.611771 -17.222430 0.000000 0.000000 0.000000 
